<?xml version="1.0" encoding="iso-8859-1"?>
<!-- Generator: Adobe Illustrator 19.0.0, SVG Export Plug-In . SVG Version: 6.00 Build 0)  -->
<svg version="1.1" id="Capa_1" xmlns="http://www.w3.org/2000/svg" xmlns:xlink="http://www.w3.org/1999/xlink" x="0px" y="0px"
	 viewBox="0 0 512 512" style="enable-background:new 0 0 512 512;" xml:space="preserve">
<g>
	<g>
		<path d="M452.005,216.607v-80.108c0-11.122-11.736-18.402-21.708-13.417l-69.834,34.916
			c-26.573,13.286-46.602,20.744-75.46,22.222v-32.302c17.459-6.192,30-22.865,30-42.42c0-24.813-20.187-45.001-45.001-45.001
			c-11.517,0-22.032,4.354-30,11.495c-7.968-7.142-18.483-11.495-30-11.495c-11.517,0-22.032,4.354-30,11.495
			c-7.968-7.142-18.483-11.495-30-11.495c-24.813,0-45.001,20.187-45.001,45.001c0,19.555,12.541,36.228,30,42.42v35.151
			c-12.805,4.54-22.956,14.727-27.463,27.548L30,210.556V195.5c0-8.284-6.716-15-15-15s-15,6.716-15,15V256.5
			c0,8.284,6.716,14,15,14s15-6.716,15-15v-15.142l37.494,0.142c-16.863,19.118-24.509,44.482-22.031,69.231
			c3.394,33.9,27.175,62.845,60.469,74.895c4.229,20.454,22.381,35.876,44.07,35.876h120.001c19.516,0,36.163-12.691,42.385-30.095
			l22.45-0.011c-1.828,4.893-2.834,10.584-2.834,16.106c0,24.813,20.187,45.001,45.001,45.001h30c24.813,0,45-20.187,45-45.001
			c0-6.946-1.584-13.529-4.407-19.409c32.68-10.204,57.371-36.732,63.044-69.74C518.278,272.935,493.02,230.949,452.005,216.607z
			 M270.003,90.498c8.271,0,15,6.729,15,15c0,8.271-6.729,15-15,15c-8.271,0-15-6.729-15-15
			C255.003,97.227,261.732,90.498,270.003,90.498z M255.003,147.919v32.58h-30v-32.58c5.587-1.982,10.67-5.034,15-8.915
			C244.333,142.885,249.416,145.937,255.003,147.919z M210.003,90.498c8.271,0,15,6.729,15,15c0,8.271-6.729,15-15,15
			c-8.271,0-15-6.729-15-15C195.002,97.227,201.731,90.498,210.003,90.498z M195.002,147.919v32.58h-30v-32.58
			c5.587-1.982,10.67-5.034,15-8.915C184.332,142.885,189.415,145.937,195.002,147.919z M150.002,90.498c8.271,0,15,6.729,15,15
			c0,8.271-6.729,15-15,15s-15-6.729-15-15C135.002,97.227,141.731,90.498,150.002,90.498z M150.002,210.5h123.912
			c40.88,0,66.672-9.021,99.965-25.667l48.126-24.063v67.211c0,0.038,0,0.076,0,0.115v64.135l-48.126-24.062
			c-32.4-16.2-58.537-27.667-99.965-27.667H150.002c-8.271,0-15-6.729-15-15C135.002,217.229,141.731,210.5,150.002,210.5z
			 M255.003,270.5v60.001h-30V270.5H255.003z M195.002,270.5v60.001h-30V270.5H195.002z M110.451,354.05
			c-19.517-9.137-33.093-26.9-35.137-47.309c-2.634-26.31,11.531-50.326,34.614-60.809c5.212,10.179,14.181,18.123,25.073,21.986
			v65.162C124.472,336.815,115.73,344.356,110.451,354.05z M270.003,390.502H150.002c-8.271,0-15-6.729-15-15
			c0-8.271,6.729-15,15-15h120.001c8.271,0,15,6.729,15,15C285.003,383.773,278.274,390.502,270.003,390.502z M407.005,421.502h-30
			c-8.271,0-15-6.729-15-15c0-8.271,6.729-15,15-15h30c8.271,0,15,6.729,15,15C422.005,414.773,415.276,421.502,407.005,421.502z
			 M481.076,312.271c-4.821,28.047-31.524,49.203-62.131,49.231H312.459c-4.509-12.813-14.657-23.88-27.455-28.42v-62.25
			c26.148,1.617,45.636,9.256,75.46,24.168l69.834,34.916c9.969,4.984,21.708-2.29,21.708-13.417v-67.016
			C473.313,261.727,485.528,286.37,481.076,312.271z"/>
	</g>
</g>
<g>
</g>
<g>
</g>
<g>
</g>
<g>
</g>
<g>
</g>
<g>
</g>
<g>
</g>
<g>
</g>
<g>
</g>
<g>
</g>
<g>
</g>
<g>
</g>
<g>
</g>
<g>
</g>
<g>
</g>
</svg>
