<?xml version="1.0" encoding="iso-8859-1"?>
<!-- Generator: Adobe Illustrator 19.0.0, SVG Export Plug-In . SVG Version: 6.00 Build 0)  -->
<svg version="1.1" id="Capa_1" xmlns="http://www.w3.org/2000/svg" xmlns:xlink="http://www.w3.org/1999/xlink" x="0px" y="0px"
	 viewBox="0 0 60.018 60.018" style="enable-background:new 0 0 60.018 60.018;" xml:space="preserve">
<path d="M58.966,41.494c0.074-0.126,0.15-0.25,0.209-0.386c0.031-0.07,0.05-0.149,0.076-0.222c0.048-0.133,0.098-0.266,0.133-0.407
	c0.018-0.074,0.026-0.154,0.04-0.23c0.029-0.153,0.057-0.306,0.071-0.467c0.005-0.066,0.004-0.135,0.007-0.202
	c0.009-0.184,0.013-0.37,0.004-0.564c-0.002-0.047-0.009-0.096-0.012-0.144c-0.016-0.226-0.042-0.457-0.081-0.694
	c-0.003-0.018-0.007-0.037-0.011-0.055c-0.361-2.069-1.612-4.513-3.619-6.911c-0.03-0.036-0.062-0.07-0.092-0.106
	c-0.204-0.241-0.41-0.482-0.629-0.721c-0.26-0.285-0.528-0.567-0.806-0.845c-4.797-4.796-10.227-6.604-12.622-4.207
	c-0.149,0.149-0.281,0.311-0.398,0.483c-0.065,0.096-0.114,0.202-0.17,0.305c-0.044,0.081-0.094,0.158-0.132,0.244
	c-0.059,0.133-0.101,0.277-0.145,0.42c-0.02,0.065-0.046,0.125-0.063,0.192c-0.04,0.157-0.064,0.324-0.087,0.492
	c-0.008,0.061-0.022,0.119-0.027,0.181c-0.017,0.174-0.019,0.356-0.019,0.54c0,0.064-0.004,0.126-0.001,0.192
	c0.006,0.186,0.027,0.38,0.051,0.575c0.009,0.071,0.014,0.139,0.025,0.211c0.03,0.198,0.073,0.402,0.12,0.608
	c0.017,0.074,0.031,0.148,0.051,0.223c0.055,0.214,0.122,0.434,0.195,0.656c0.015,0.046,0.025,0.09,0.041,0.137
	c0.963,2.808,1.431,5.332,1.431,7.718v2.509c-1.654,0-3,1.346-3,3c0,1.583,1.237,2.871,2.793,2.979
	c-0.403,1.087-1.356,1.899-2.495,2.007c-0.863,0.075-1.682-0.19-2.315-0.766c-0.624-0.567-0.982-1.377-0.982-2.221v-1
	c0.266,0,0.52-0.105,0.707-0.293l1-1c0.188-0.188,0.293-0.441,0.293-0.707v-2c0-0.266-0.105-0.52-0.293-0.707l-1-1
	c-0.188-0.188-0.441-0.293-0.707-0.293v-1c0.266,0,0.52-0.105,0.707-0.293l1-1c0.188-0.188,0.293-0.441,0.293-0.707v-2
	c0-0.266-0.105-0.52-0.293-0.707l-1-1c-0.188-0.188-0.441-0.293-0.707-0.293v-1c0.266,0,0.52-0.105,0.707-0.293l1-1
	c0.188-0.188,0.293-0.441,0.293-0.707v-2c0-0.266-0.105-0.52-0.293-0.707l-1-1c-0.188-0.188-0.441-0.293-0.707-0.293v-1
	c0.266,0,0.52-0.105,0.707-0.293l1-1c0.188-0.188,0.293-0.441,0.293-0.707v-2c0-0.266-0.105-0.52-0.293-0.707l-1-1
	c-0.188-0.188-0.441-0.293-0.707-0.293v-1c0.266,0,0.52-0.105,0.707-0.293l1-1c0.188-0.188,0.293-0.441,0.293-0.707v-2
	c0-0.266-0.105-0.52-0.293-0.707l-1-1c-0.188-0.188-0.441-0.293-0.707-0.293H36.46c-0.22-2.868-1.374-5.581-3.318-7.726
	c-3.648-4.029-9.833-4.409-14.08-0.873c-1.236,1.031-2.805,1.599-4.415,1.599h-0.141c0-0.553-0.447-1-1-1h-3c-0.553,0-1,0.447-1,1
	h-3c-0.002,0-0.003,0.001-0.005,0.001C6.384,4.02,6.27,4.047,6.16,4.088C6.13,4.099,6.103,4.111,6.076,4.125
	c-0.028,0.013-0.058,0.02-0.084,0.036l-5,3C0.691,7.342,0.506,7.667,0.506,8.019v3c0,0.553,0.447,1,1,1h5h3c0,0.553,0.447,1,1,1h3
	c0.553,0,1-0.447,1-1h0.473c1.862,0,3.648-0.571,5.165-1.652l2.861-2.039c1.025-0.73,2.388-0.863,3.553-0.344
	c1.09,0.483,1.79,1.416,1.921,2.554c0.018,0.153,0.027,0.31,0.027,0.469v7.013h-1c-0.553,0-1,0.447-1,1s0.447,1,1,1h1v2h-1
	c-0.553,0-1,0.447-1,1s0.447,1,1,1h1v8h-1c-0.553,0-1,0.447-1,1s0.447,1,1,1h1v2h-1c-0.553,0-1,0.447-1,1s0.447,1,1,1h1v7.57
	c0,7.81,6.156,14.281,13.724,14.427c0.09,0.002,0.18,0.002,0.27,0.002c3.786,0,7.447-1.549,10.08-4.276
	c2.734-2.832,4.121-6.563,3.905-10.508c-0.054-0.994,0.51-1.981,1.541-2.705c0.157-0.108,0.303-0.23,0.438-0.366
	c0.152-0.152,0.286-0.317,0.405-0.492C58.906,41.615,58.932,41.552,58.966,41.494z M57.487,39.735
	c-0.006,0.052-0.02,0.097-0.029,0.146c-0.017,0.088-0.032,0.178-0.057,0.257c-0.015,0.046-0.036,0.085-0.054,0.128
	c-0.029,0.072-0.055,0.146-0.091,0.209c-0.059,0.102-0.127,0.194-0.207,0.273c-1.314,1.316-5.783-0.199-9.793-4.208
	c-1.96-1.96-3.45-4.133-4.196-6.119c-0.036-0.095-0.062-0.185-0.094-0.278l0,0c-0.063-0.184-0.117-0.362-0.164-0.536
	c-0.009-0.034-0.017-0.067-0.025-0.1c-0.036-0.14-0.067-0.276-0.093-0.408c-0.014-0.072-0.024-0.141-0.035-0.211
	c-0.015-0.093-0.029-0.185-0.038-0.274c-0.01-0.103-0.015-0.201-0.019-0.298c-0.002-0.054-0.006-0.11-0.006-0.163
	c0.001-0.117,0.009-0.227,0.021-0.335c0.003-0.031,0.004-0.064,0.008-0.094c0.016-0.113,0.041-0.218,0.07-0.318
	c0.006-0.021,0.01-0.046,0.016-0.067c0.032-0.098,0.073-0.186,0.118-0.27c0.01-0.019,0.017-0.041,0.027-0.059
	c0.058-0.098,0.124-0.187,0.2-0.263c0.08-0.08,0.172-0.148,0.274-0.208c0.038-0.022,0.084-0.036,0.125-0.056
	c0.069-0.032,0.137-0.066,0.214-0.09c0.052-0.016,0.111-0.025,0.166-0.038c0.077-0.017,0.152-0.036,0.234-0.047
	c0.061-0.008,0.128-0.009,0.193-0.013c0.081-0.005,0.162-0.01,0.248-0.009c0.218,0.002,0.453,0.025,0.701,0.065
	c0.056,0.009,0.116,0.022,0.174,0.034c0.222,0.043,0.453,0.099,0.694,0.17c0.05,0.015,0.099,0.026,0.15,0.042
	c0.278,0.088,0.569,0.197,0.867,0.322c0.073,0.031,0.148,0.065,0.222,0.097c0.271,0.12,0.549,0.253,0.833,0.402
	c0.046,0.024,0.091,0.045,0.138,0.07c0.32,0.172,0.646,0.367,0.976,0.575c0.081,0.051,0.163,0.105,0.244,0.158
	c0.314,0.206,0.63,0.424,0.949,0.661c0.029,0.021,0.057,0.04,0.085,0.061c0.34,0.256,0.682,0.536,1.023,0.828
	c0.083,0.071,0.166,0.144,0.249,0.217c0.346,0.305,0.691,0.622,1.033,0.963c2.745,2.745,4.321,5.705,4.618,7.722
	c0.001,0.01,0.004,0.021,0.005,0.031c0.019,0.137,0.027,0.265,0.035,0.392c0.003,0.053,0.009,0.108,0.01,0.159
	c0.002,0.083-0.005,0.16-0.009,0.238C57.498,39.577,57.497,39.66,57.487,39.735z M41.506,44.019c0-0.552,0.448-1,1-1v2
	C41.954,45.019,41.506,44.57,41.506,44.019z M36.506,42.605l-0.414,0.414h-0.586H34.92l-0.414-0.414v-1.172l0.414-0.414h0.586h0.586
	l0.414,0.414V42.605z M36.506,35.605l-0.414,0.414h-0.586H34.92l-0.414-0.414v-1.172l0.414-0.414h0.586h0.586l0.414,0.414V35.605z
	 M36.506,28.605l-0.414,0.414h-0.586H34.92l-0.414-0.414v-1.172l0.414-0.414h0.586h0.586l0.414,0.414V28.605z M36.506,21.605
	l-0.414,0.414h-0.586H34.92l-0.414-0.414v-1.172l0.414-0.414h0.586h0.586l0.414,0.414V21.605z M36.506,14.605l-0.414,0.414h-0.586
	H34.92l-0.414-0.414v-1.172l0.414-0.414h0.586h0.586l0.414,0.414V14.605z M2.506,8.585l3-1.8v3.233h-3V8.585z M7.506,10.019v-4h2v4
	H7.506z M11.506,11.019v-6h1v6H11.506z M51.14,54.353c-2.344,2.428-5.521,3.747-8.871,3.663
	c-6.486-0.125-11.763-5.699-11.763-12.427v-7.57h1c0.553,0,1-0.447,1-1s-0.447-1-1-1h-1v-2h1c0.553,0,1-0.447,1-1s-0.447-1-1-1h-1
	v-8h1c0.553,0,1-0.447,1-1s-0.447-1-1-1h-1v-2h1c0.553,0,1-0.447,1-1s-0.447-1-1-1h-1v-7.013c0-0.235-0.014-0.466-0.04-0.695
	c-0.212-1.835-1.369-3.388-3.097-4.155c-0.73-0.325-1.512-0.484-2.289-0.484c-1.146,0-2.284,0.348-3.236,1.027l-2.86,2.039
	c-1.177,0.838-2.562,1.281-4.005,1.281h-0.473v-4h0.141c2.078,0,4.101-0.732,5.696-2.062c3.418-2.852,8.391-2.554,11.316,0.679
	c1.611,1.776,2.587,4.014,2.802,6.384c-0.077,0.004-0.149,0.031-0.222,0.052c-0.042,0.012-0.086,0.013-0.125,0.029
	c-0.116,0.05-0.224,0.119-0.315,0.21l-1,1c-0.188,0.188-0.293,0.441-0.293,0.707v2c0,0.266,0.105,0.52,0.293,0.707l1,1
	c0.188,0.188,0.441,0.293,0.707,0.293v1c-0.266,0-0.52,0.105-0.707,0.293l-1,1c-0.188,0.188-0.293,0.441-0.293,0.707v2
	c0,0.266,0.105,0.52,0.293,0.707l1,1c0.188,0.188,0.441,0.293,0.707,0.293v1c-0.266,0-0.52,0.105-0.707,0.293l-1,1
	c-0.188,0.188-0.293,0.441-0.293,0.707v2c0,0.266,0.105,0.52,0.293,0.707l1,1c0.188,0.188,0.441,0.293,0.707,0.293v1
	c-0.266,0-0.52,0.105-0.707,0.293l-1,1c-0.188,0.188-0.293,0.441-0.293,0.707v2c0,0.266,0.105,0.52,0.293,0.707l1,1
	c0.188,0.188,0.441,0.293,0.707,0.293v1c-0.266,0-0.52,0.105-0.707,0.293l-1,1c-0.188,0.188-0.293,0.441-0.293,0.707v2
	c0,0.266,0.105,0.52,0.293,0.707l1,1c0.188,0.188,0.441,0.293,0.707,0.293v1c0,1.406,0.597,2.755,1.638,3.701
	c1.04,0.945,2.448,1.412,3.85,1.275c2.145-0.204,3.882-1.865,4.366-3.977h2.147c0.553,0,1-0.447,1-1s-0.447-1-1-1h-2v-2h2
	c0.553,0,1-0.447,1-1s-0.447-1-1-1h-2V38.51c0-0.703-0.043-1.418-0.117-2.143c0.454,0.54,0.938,1.072,1.454,1.587
	c3.097,3.097,6.447,4.929,9.084,5.207c-0.321,0.689-0.48,1.427-0.439,2.182C54.673,48.726,53.483,51.925,51.14,54.353z"/>
<g>
</g>
<g>
</g>
<g>
</g>
<g>
</g>
<g>
</g>
<g>
</g>
<g>
</g>
<g>
</g>
<g>
</g>
<g>
</g>
<g>
</g>
<g>
</g>
<g>
</g>
<g>
</g>
<g>
</g>
</svg>
